<svg xmlns="http://www.w3.org/2000/svg" width="169.778" height="175.885" viewBox="0 0 169.778 175.885">
  <defs>
    <style>
      .cls-1 {
        fill: #d6d4d4;
      }

      .cls-2 {
        fill: #b2b2b2;
      }

      .cls-3 {
        fill: #e6e6e6;
      }

      .cls-4 {
        fill: #6ca9ee;
      }

      .cls-5 {
        fill: #3f3d56;
      }
    </style>
  </defs>
  <g id="Group_137" data-name="Group 137" transform="translate(0 -0.163)">
    <rect id="Rectangle_1926" data-name="Rectangle 1926" class="cls-1" width="7.696" height="122.203" transform="matrix(0.836, -0.548, 0.548, 0.836, 32.109, 65.775)"/>
    <path id="Path_20" data-name="Path 20" class="cls-1" d="M268.111,167.426,283,190.128a1.982,1.982,0,0,1-3.315,2.174l-17.117-26.1a14.139,14.139,0,0,0-6.8,1.116l18.65,28.435a1.982,1.982,0,1,1-3.315,2.174l-18.65-28.435a14.139,14.139,0,0,0-3.732,5.79l17.117,26.1a1.982,1.982,0,0,1-3.315,2.174l-14.889-22.7c-.382,6.33,1.681,13.832,6.2,20.728,8.406,12.816,22.118,18.682,30.626,13.1s8.591-20.494.185-33.31C280.128,174.479,274.069,169.6,268.111,167.426Z" transform="translate(-244.887 -144.327)"/>
    <rect id="Rectangle_1927" data-name="Rectangle 1927" class="cls-1" width="7" height="123" transform="translate(60 47.163)"/>
    <ellipse id="Ellipse_313" data-name="Ellipse 313" class="cls-1" cx="18.5" cy="27.5" rx="18.5" ry="27.5" transform="translate(45 0.163)"/>
    <ellipse id="Ellipse_314" data-name="Ellipse 314" class="cls-2" cx="15.159" cy="22.834" rx="15.159" ry="22.834" transform="translate(48.275 4.918)"/>
    <ellipse id="Ellipse_315" data-name="Ellipse 315" class="cls-3" cx="84.889" cy="4.871" rx="84.889" ry="4.871" transform="translate(0 166.307)"/>
    <path id="Path_21" data-name="Path 21" class="cls-4" d="M485.344,651.594a271.178,271.178,0,0,0-96.208,0,3.51,3.51,0,0,1-4.135-3.45V604.557H489.479v43.588a3.51,3.51,0,0,1-4.135,3.45Z" transform="translate(-350.251 -480.488)"/>
    <path id="Path_22" data-name="Path 22" class="cls-4" d="M429.336,390.645a21.656,21.656,0,0,0-7.089,1.186,41.758,41.758,0,0,0-75.664-.382,21.69,21.69,0,1,0,2.838,40.754,41.751,41.751,0,0,0,70.138-.5,21.69,21.69,0,1,0,9.777-41.053Z" transform="translate(-299.67 -298.76)"/>
    <path id="Path_23" data-name="Path 23" class="cls-5" d="M419.466,487.526H419a41.605,41.605,0,0,1,4.022-17.954l.422.2A41.141,41.141,0,0,0,419.466,487.526Z" transform="translate(-376.322 -376.983)"/>
    <path id="Path_25" data-name="Path 25" class="cls-5" d="M384.871,670.979l-.112-.453a231.225,231.225,0,0,1,32.813-4.9c17.93-1.491,44.937-1.85,71.779,4.9l-.114.452c-26.777-6.737-53.725-6.379-71.617-4.892A230.734,230.734,0,0,0,384.871,670.979Z" transform="translate(-350.066 -526.628)"/>
    <path id="Path_26" data-name="Path 26" class="cls-5" d="M384.871,697.979l-.112-.453a231.221,231.221,0,0,1,32.813-4.9c17.93-1.491,44.937-1.85,71.779,4.9l-.114.452c-26.777-6.737-53.725-6.379-71.617-4.892A230.745,230.745,0,0,0,384.871,697.979Z" transform="translate(-350.066 -547.331)"/>
    <path id="Path_27" data-name="Path 27" class="cls-5" d="M384.871,724.979l-.112-.453a231.221,231.221,0,0,1,32.813-4.9c17.93-1.491,44.937-1.85,71.779,4.9l-.114.452c-26.777-6.737-53.725-6.379-71.617-4.892A230.734,230.734,0,0,0,384.871,724.979Z" transform="translate(-350.066 -568.034)"/>
    <path id="Path_38" data-name="Path 38" class="cls-5" d="M280.044,729.607a13.4,13.4,0,0,1-15.275,0,1.036,1.036,0,0,1-.49-.955l1.589-20.654h12.85l1.815,20.646A1.035,1.035,0,0,1,280.044,729.607Z" transform="translate(-257.682 -559.803)"/>
    <ellipse id="Ellipse_317" data-name="Ellipse 317" class="cls-5" cx="6.484" cy="2.336" rx="6.484" ry="2.336" transform="translate(8.067 146.089)"/>
    <path id="Path_39" data-name="Path 39" class="cls-4" d="M287.925,693.323q-5.068,3.565-9.813,0v-3.738h9.813Z" transform="translate(-268.291 -545.687)"/>
    <ellipse id="Ellipse_318" data-name="Ellipse 318" class="cls-4" cx="4.906" cy="1.869" rx="4.906" ry="1.869" transform="translate(9.821 142.029)"/>
    <ellipse id="Ellipse_319" data-name="Ellipse 319" class="cls-3" cx="0.467" cy="0.234" rx="0.467" ry="0.234" transform="translate(14.494 143.431)"/>
    <ellipse id="Ellipse_320" data-name="Ellipse 320" class="cls-3" cx="0.467" cy="0.234" rx="0.467" ry="0.234" transform="translate(16.7 143.431)"/>
    <ellipse id="Ellipse_321" data-name="Ellipse 321" class="cls-3" cx="0.467" cy="0.234" rx="0.467" ry="0.234" transform="translate(15.597 143.983)"/>
    <ellipse id="Ellipse_322" data-name="Ellipse 322" class="cls-3" cx="0.467" cy="0.234" rx="0.467" ry="0.234" transform="translate(11.184 143.983)"/>
    <ellipse id="Ellipse_323" data-name="Ellipse 323" class="cls-3" cx="0.467" cy="0.234" rx="0.467" ry="0.234" transform="translate(12.288 143.431)"/>
    <ellipse id="Ellipse_324" data-name="Ellipse 324" class="cls-3" cx="0.467" cy="0.234" rx="0.467" ry="0.234" transform="translate(13.391 144.258)"/>
    <path id="Path_40" data-name="Path 40" class="cls-5" d="M885.044,729.607a13.4,13.4,0,0,1-15.275,0,1.036,1.036,0,0,1-.49-.955l1.589-20.654h12.85l1.815,20.646A1.035,1.035,0,0,1,885.044,729.607Z" transform="translate(-721.589 -559.803)"/>
    <ellipse id="Ellipse_325" data-name="Ellipse 325" class="cls-5" cx="6.484" cy="2.336" rx="6.484" ry="2.336" transform="translate(149.16 146.089)"/>
    <path id="Path_41" data-name="Path 41" class="cls-4" d="M892.925,693.323q-5.068,3.565-9.813,0v-3.738h9.813Z" transform="translate(-732.198 -545.687)"/>
    <ellipse id="Ellipse_326" data-name="Ellipse 326" class="cls-4" cx="4.906" cy="1.869" rx="4.906" ry="1.869" transform="translate(150.914 142.029)"/>
    <ellipse id="Ellipse_327" data-name="Ellipse 327" class="cls-3" cx="0.467" cy="0.234" rx="0.467" ry="0.234" transform="translate(155.587 143.431)"/>
    <ellipse id="Ellipse_328" data-name="Ellipse 328" class="cls-3" cx="0.467" cy="0.234" rx="0.467" ry="0.234" transform="translate(157.794 143.431)"/>
    <ellipse id="Ellipse_329" data-name="Ellipse 329" class="cls-3" cx="0.467" cy="0.234" rx="0.467" ry="0.234" transform="translate(156.69 143.983)"/>
    <ellipse id="Ellipse_330" data-name="Ellipse 330" class="cls-3" cx="0.467" cy="0.234" rx="0.467" ry="0.234" transform="translate(152.278 143.983)"/>
    <ellipse id="Ellipse_331" data-name="Ellipse 331" class="cls-3" cx="0.467" cy="0.234" rx="0.467" ry="0.234" transform="translate(153.381 143.431)"/>
    <ellipse id="Ellipse_332" data-name="Ellipse 332" class="cls-3" cx="0.467" cy="0.234" rx="0.467" ry="0.234" transform="translate(154.484 144.258)"/>
  </g>
</svg>
